<?xml version="1.0" encoding="utf-8"?>
<!-- Generator: Adobe Illustrator 28.1.0, SVG Export Plug-In . SVG Version: 6.00 Build 0)  -->
<svg version="1.1"
	 id="svg2" xmlns:inkscape="http://www.inkscape.org/namespaces/inkscape" xmlns:dc="http://purl.org/dc/elements/1.1/" xmlns:svg="http://www.w3.org/2000/svg" xmlns:rdf="http://www.w3.org/1999/02/22-rdf-syntax-ns#" xmlns:sodipodi="http://sodipodi.sourceforge.net/DTD/sodipodi-0.dtd" xmlns:cc="http://creativecommons.org/ns#"
	 xmlns="http://www.w3.org/2000/svg" xmlns:xlink="http://www.w3.org/1999/xlink" x="0px" y="0px" viewBox="0 0 64 64"
	 style="enable-background:new 0 0 64 64;" xml:space="preserve">
<style type="text/css">
	.st0{fill-rule:evenodd;clip-rule:evenodd;fill:#5B89B4;}
	.st1{fill-rule:evenodd;clip-rule:evenodd;fill:#F0EBDC;}
</style>
<sodipodi:namedview  bordercolor="#666666" borderopacity="1" gridtolerance="10" guidetolerance="10" id="namedview4" inkscape:current-layer="svg2" inkscape:cx="21.71134" inkscape:cy="38.080205" inkscape:document-rotation="0" inkscape:pagecheckerboard="true" inkscape:pageopacity="0" inkscape:pageshadow="2" inkscape:window-height="837" inkscape:window-maximized="1" inkscape:window-width="1600" inkscape:window-x="-8" inkscape:window-y="-8" inkscape:zoom="5.2149125" objecttolerance="10" pagecolor="#ffffff" showgrid="false">
	<inkscape:grid  id="grid812" type="xygrid"></inkscape:grid>
</sodipodi:namedview>
<g>
	<path class="st0" d="M6.4,45.6V17.7c0-3.4,2.8-6.2,6.2-6.2h38.7c3.4,0,6.2,2.8,6.2,6.2v27.9c0,3.4-2.8,6.2-6.2,6.2H12.6
		C9.2,51.8,6.4,49,6.4,45.6z"/>
	<path class="st1" d="M50.5,49H13.3c-2.3,0-4.2-1.9-4.2-4.2V18.4c0-2.3,1.9-4.2,4.2-4.2h37.2c2.3,0,4.2,1.9,4.2,4.2v26.5
		C54.7,47.2,52.8,49,50.5,49z"/>
	<g>
		<path class="st0" d="M23.7,45.6l-0.2-0.1l0.4-1.1l-0.4,1.1c-0.2-0.1-0.5-0.2-0.8-0.4c-0.3-0.3-0.4-0.6-0.4-0.8l-0.1-0.2l0-0.2
			c0.1-1.7-0.6-3.4-1.9-4.7c-1.3-1.3-3-2-4.8-2c-0.9,0-1.6-0.7-1.6-1.6c0-0.9,0.7-1.6,1.6-1.6l0.1,0c2.6,0,5,1,6.9,2.9
			c1.9,1.9,2.9,4.4,2.9,7c0,0.8-0.7,1.6-1.6,1.6H23.7z"/>
		<path class="st0" d="M29.7,45.5c-0.4,0-0.8-0.2-1.1-0.5c-0.3-0.3-0.4-0.6-0.4-0.8l-0.1-0.2l0-0.2c0-7-5.7-12.6-12.6-12.6
			c-0.9,0-1.6-0.7-1.6-1.6c0-0.9,0.7-1.6,1.6-1.6c4.2,0,8.2,1.7,11.2,4.7c3,3,4.6,6.9,4.6,11.1C31.3,44.8,30.6,45.5,29.7,45.5z"/>
		<path class="st0" d="M35.7,45.5c-0.4,0-0.8-0.2-1.1-0.5c-0.3-0.3-0.4-0.6-0.4-0.8l-0.1-0.2V44c0-10.2-8.3-18.5-18.6-18.6
			c-0.9,0-1.6-0.7-1.6-1.6c0-0.9,0.7-1.6,1.6-1.6c11.9,0.1,21.7,9.8,21.7,21.7C37.3,44.8,36.6,45.5,35.7,45.5z"/>
	</g>
</g>
</svg>
