<?xml version="1.0" encoding="utf-8"?>
<!-- Generator: Adobe Illustrator 28.1.0, SVG Export Plug-In . SVG Version: 6.00 Build 0)  -->
<svg version="1.1"
	 id="svg2" xmlns:inkscape="http://www.inkscape.org/namespaces/inkscape" xmlns:dc="http://purl.org/dc/elements/1.1/" xmlns:svg="http://www.w3.org/2000/svg" xmlns:rdf="http://www.w3.org/1999/02/22-rdf-syntax-ns#" xmlns:sodipodi="http://sodipodi.sourceforge.net/DTD/sodipodi-0.dtd" xmlns:cc="http://creativecommons.org/ns#"
	 xmlns="http://www.w3.org/2000/svg" xmlns:xlink="http://www.w3.org/1999/xlink" x="0px" y="0px" viewBox="0 0 64 64"
	 style="enable-background:new 0 0 64 64;" xml:space="preserve">
<style type="text/css">
	.st0{fill:#EED383;}
	.st1{fill:#EB907C;}
</style>
<sodipodi:namedview  bordercolor="#666666" borderopacity="1" gridtolerance="10" guidetolerance="10" id="namedview4" inkscape:current-layer="svg2" inkscape:cx="21.71134" inkscape:cy="38.080205" inkscape:document-rotation="0" inkscape:pagecheckerboard="true" inkscape:pageopacity="0" inkscape:pageshadow="2" inkscape:window-height="837" inkscape:window-maximized="1" inkscape:window-width="1600" inkscape:window-x="-8" inkscape:window-y="-8" inkscape:zoom="5.2149125" objecttolerance="10" pagecolor="#ffffff" showgrid="false">
	<inkscape:grid  id="grid812" type="xygrid"></inkscape:grid>
</sodipodi:namedview>
<g>
	<circle class="st0" cx="32" cy="32" r="25.4"/>
	<circle class="st1" cx="32" cy="32" r="19.7"/>
	<path class="st0" d="M41.2,32.2c0.2,2.8,0.6,6.9-2.2,9.7c-2.7,2.6-6.7,2.3-8.1,2.2c-1.7-0.1-5.2-0.4-7-3c-1.9-2.7-1.2-6.7-0.3-9.1
		c1-2.5,2.5-4.3,1.7-5.4c-0.6-0.9-2.3-0.7-2.3-1.2c-0.1-0.5,1.6-0.6,3.2-2.1c1.1-1,0.9-1.4,2-2.2c0.2-0.1,1.3-1,2.9-1.2
		c2.2-0.3,3.9,0.9,4.7,1.5C40.5,24.6,41.1,31.1,41.2,32.2L41.2,32.2z"/>
</g>
</svg>
