<?xml version="1.0" encoding="utf-8"?>
<!-- Generator: Adobe Illustrator 28.1.0, SVG Export Plug-In . SVG Version: 6.00 Build 0)  -->
<svg version="1.1"
	 id="svg2" xmlns:inkscape="http://www.inkscape.org/namespaces/inkscape" xmlns:dc="http://purl.org/dc/elements/1.1/" xmlns:svg="http://www.w3.org/2000/svg" xmlns:rdf="http://www.w3.org/1999/02/22-rdf-syntax-ns#" xmlns:sodipodi="http://sodipodi.sourceforge.net/DTD/sodipodi-0.dtd" xmlns:cc="http://creativecommons.org/ns#"
	 xmlns="http://www.w3.org/2000/svg" xmlns:xlink="http://www.w3.org/1999/xlink" x="0px" y="0px" viewBox="0 0 64 64"
	 style="enable-background:new 0 0 64 64;" xml:space="preserve">
<style type="text/css">
	.st0{fill:#EEF1F0;}
	.st1{fill:#8ABBD3;}
	.st2{fill:#3F5464;}
	.st3{fill:#A3A7AA;}
	.st4{fill:#5B89B4;}
	.st5{fill:#8785CA;}
</style>
<sodipodi:namedview  bordercolor="#666666" borderopacity="1" gridtolerance="10" guidetolerance="10" id="namedview4" inkscape:current-layer="svg2" inkscape:cx="21.71134" inkscape:cy="38.080205" inkscape:document-rotation="0" inkscape:pagecheckerboard="true" inkscape:pageopacity="0" inkscape:pageshadow="2" inkscape:window-height="837" inkscape:window-maximized="1" inkscape:window-width="1600" inkscape:window-x="-8" inkscape:window-y="-8" inkscape:zoom="5.2149125" objecttolerance="10" pagecolor="#ffffff" showgrid="false">
	<inkscape:grid  id="grid812" type="xygrid"></inkscape:grid>
</sodipodi:namedview>
<g>
	<path class="st0" d="M53.4,35.2l-4.6,3l-7.7,5l-7.8,5.1c-0.8,0.5-1.8,0.5-2.6,0l-7.8-5.1l-7.7-5l-4.6-3c-0.7-0.5-1.1-1.2-1.1-2
		c0,0,0-0.1,0-0.1c0-0.7,0.4-1.4,1-1.8l20.1-13.4c0.8-0.5,1.8-0.5,2.6,0l20.1,13.4c0.7,0.4,1,1.1,1,1.8
		C54.5,33.9,54.1,34.7,53.4,35.2z"/>
	<path class="st1" d="M38.1,10.6c0,2.8-1.9,5.2-4.5,5.9c-0.5,0.1-1.1,0.2-1.6,0.2c-0.6,0-1.1-0.1-1.6-0.2c-2.6-0.7-4.5-3.1-4.5-5.9
		c0-3.4,2.7-6.1,6.1-6.1S38.1,7.2,38.1,10.6z"/>
	<ellipse class="st2" cx="32" cy="33.5" rx="8.3" ry="5.6"/>
	<path class="st3" d="M33.6,16.5v16.8c-0.5,0.1-1.1,0.2-1.6,0.2c-0.6,0-1.1-0.1-1.6-0.2V16.5c0.5,0.1,1.1,0.2,1.6,0.2
		C32.5,16.7,33.1,16.6,33.6,16.5z"/>
	<path class="st4" d="M54.5,33.1v10.1h-0.1c0,0.8-0.3,1.5-1.1,2L33.2,58.3c-0.8,0.5-1.8,0.5-2.6,0L10.5,45.3c-0.7-0.5-1.1-1.2-1.1-2
		h0v-10c0,0.8,0.4,1.5,1.1,2l4.6,3l7.7,5l7.8,5.1c0.8,0.5,1.8,0.5,2.6,0l7.8-5.1l7.7-5l4.6-3c0.8-0.5,1.1-1.3,1.1-2.1H54.5z"/>
	<ellipse class="st5" cx="32" cy="43.1" rx="3.3" ry="2.5"/>
</g>
</svg>
