<?xml version="1.0" encoding="utf-8"?>
<!-- Generator: Adobe Illustrator 28.1.0, SVG Export Plug-In . SVG Version: 6.00 Build 0)  -->
<svg version="1.1"
	 id="svg2" xmlns:inkscape="http://www.inkscape.org/namespaces/inkscape" xmlns:dc="http://purl.org/dc/elements/1.1/" xmlns:svg="http://www.w3.org/2000/svg" xmlns:rdf="http://www.w3.org/1999/02/22-rdf-syntax-ns#" xmlns:sodipodi="http://sodipodi.sourceforge.net/DTD/sodipodi-0.dtd" xmlns:cc="http://creativecommons.org/ns#"
	 xmlns="http://www.w3.org/2000/svg" xmlns:xlink="http://www.w3.org/1999/xlink" x="0px" y="0px" viewBox="0 0 64 64"
	 style="enable-background:new 0 0 64 64;" xml:space="preserve">
<style type="text/css">
	.st0{fill:#F0EBDC;}
</style>
<sodipodi:namedview  bordercolor="#666666" borderopacity="1" gridtolerance="10" guidetolerance="10" id="namedview4" inkscape:current-layer="svg2" inkscape:cx="21.71134" inkscape:cy="38.080205" inkscape:document-rotation="0" inkscape:pagecheckerboard="true" inkscape:pageopacity="0" inkscape:pageshadow="2" inkscape:window-height="837" inkscape:window-maximized="1" inkscape:window-width="1600" inkscape:window-x="-8" inkscape:window-y="-8" inkscape:zoom="5.2149125" objecttolerance="10" pagecolor="#ffffff" showgrid="false">
	<inkscape:grid  id="grid812" type="xygrid"></inkscape:grid>
</sodipodi:namedview>
<g>
	<path class="st0" d="M57.4,39.9v12c0,3.8-3.1,6.8-6.8,6.8H40.2v-2.5h10.4c2.4,0,4.3-1.9,4.3-4.3v-12H57.4z"/>
	<path class="st0" d="M23.6,56.2v2.5H13.2c-3.8,0-6.8-3.1-6.8-6.8v-12h2.6v12c0,2.4,1.9,4.3,4.3,4.3H23.6z"/>
	<path class="st0" d="M23.6,4.5v2.6H13.2c-2.4,0-4.3,1.9-4.3,4.3v12H6.4v-12c0-3.8,3.1-6.8,6.8-6.8H23.6z"/>
	<path class="st0" d="M57.4,11.4v12h-2.6v-12c0-2.4-1.9-4.3-4.3-4.3H40.2V4.5h10.4C54.3,4.5,57.4,7.6,57.4,11.4z"/>
	<rect x="20.2" y="41.5" class="st0" width="23.5" height="2.7"/>
	<rect x="20.2" y="19.1" class="st0" width="23.5" height="2.7"/>
	<rect x="7.7" y="30.3" class="st0" width="48.4" height="2.7"/>
</g>
</svg>
